<svg width="34" height="34" viewBox="0 0 34 34" fill="none" xmlns="http://www.w3.org/2000/svg">
<path d="M23.2086 0.283752H10.0971C4.53076 0.283752 0 4.79601 0 10.3439V23.5108C0 29.0587 4.53076 33.5709 10.0971 33.5709H23.1901C28.7749 33.5709 33.2872 29.0587 33.2872 23.5108V10.3439C33.3057 4.79601 28.7749 0.283752 23.2086 0.283752ZM30.5132 24.3245C30.5132 27.8936 27.6099 30.797 24.0407 30.797H9.24644C5.67731 30.797 2.77393 27.8936 2.77393 24.3245V9.53019C2.77393 5.96107 5.67731 3.05768 9.24644 3.05768H24.0407C27.6099 3.05768 30.5132 5.96107 30.5132 9.53019V24.3245Z" fill="white"/>
<path d="M25.6496 10.1774C26.7629 10.1774 27.6653 9.27494 27.6653 8.16169C27.6653 7.04844 26.7629 6.14597 25.6496 6.14597C24.5364 6.14597 23.6339 7.04844 23.6339 8.16169C23.6339 9.27494 24.5364 10.1774 25.6496 10.1774Z" fill="white"/>
<path d="M16.6991 8.51309C11.9834 8.51309 8.13688 12.3226 8.13688 17.0198C8.13688 21.7355 11.9649 25.545 16.6991 25.545C21.4333 25.545 25.2613 21.7336 25.2613 17.0198C25.2428 12.3226 21.4148 8.51309 16.6991 8.51309ZM16.7915 22.4752C13.7217 22.4752 11.2437 19.9972 11.2437 16.9458C11.2437 13.8945 13.7217 11.4165 16.7915 11.4165C19.8614 11.4165 22.3394 13.8945 22.3394 16.9458C22.3394 19.9972 19.8614 22.4752 16.7915 22.4752Z" fill="white"/>
</svg>
