<svg width="31" height="36" viewBox="0 0 31 36" fill="none" xmlns="http://www.w3.org/2000/svg">
<path d="M31 8.51504V14.5181C27.9451 14.5326 24.9641 13.5786 22.485 11.7933V24.1614C22.4892 26.3787 21.835 28.5474 20.6053 30.3925C19.3756 32.2376 17.6258 33.6761 15.5776 34.5255C13.5295 35.375 11.2752 35.5973 9.1006 35.1642C6.92599 34.7311 4.92891 33.6621 3.36252 32.0927C1.79613 30.5234 0.730947 28.5243 0.30199 26.3488C-0.126968 24.1734 0.099614 21.9196 0.953015 19.873C1.80642 17.8265 3.24821 16.0794 5.09565 14.8533C6.94308 13.6271 9.11298 12.977 11.3303 12.9854C11.8433 12.9785 12.3559 13.0141 12.863 13.0919V19.2653C12.1129 19.0672 11.3292 19.0309 10.5639 19.1588C9.59958 19.3093 8.6985 19.7329 7.96732 20.3794C7.23614 21.026 6.70546 21.8684 6.43806 22.8071C6.17066 23.7458 6.17774 24.7414 6.45846 25.6762C6.73918 26.611 7.2818 27.4458 8.0221 28.0819C8.7624 28.718 9.66941 29.1287 10.6358 29.2654C11.6022 29.4022 12.5876 29.2592 13.4753 28.8535C14.363 28.4478 15.1159 27.7963 15.645 26.9761C16.174 26.1559 16.4571 25.2013 16.4606 24.2253V0H22.5489C22.5441 1.43193 22.9005 2.84195 23.5852 4.09961C24.2698 5.35727 25.2606 6.42197 26.4658 7.19521C27.8225 8.05385 29.3944 8.51139 31 8.51504Z" fill="white"/>
</svg>
